<svg version="1.1" xmlns="http://www.w3.org/2000/svg" x="0px" y="0px" viewBox="0 0 100 100">
<path d="M15.8,50.1H49v10.4c0,0.4,0.2,0.8,0.6,0.9c0.1,0.1,0.3,0.1,0.4,0.1c0.3,0,0.5-0.1,0.7-0.3l11.6-11.1h21.9
	c3.2,0,5.8-2.6,5.8-5.8v-28c0-3.2-2.6-5.8-5.8-5.8H15.8c-3.2,0-5.8,2.6-5.8,5.8v28C10,47.5,12.6,50.1,15.8,50.1z M12,16.3
	c0-2.1,1.7-3.8,3.8-3.8h68.3c2.1,0,3.8,1.7,3.8,3.8v28c0,2.1-1.7,3.8-3.8,3.8H61.9c-0.3,0-0.5,0.1-0.7,0.3L51,58.2v-9
	c0-0.6-0.4-1-1-1H15.8c-2.1,0-3.8-1.7-3.8-3.8V16.3z"></path>
<path d="M77.2,77c2.6-2.2,4.1-5.4,4.1-8.9c0-6.5-5.3-11.8-11.8-11.8s-11.8,5.3-11.8,11.8c0,3.5,1.5,6.7,4.1,8.9
	c-5,1.9-9.2,5.4-11.8,10.1c-2.6-4.6-6.8-8.3-11.8-10.1c2.6-2.2,4.1-5.4,4.1-8.9c0-6.5-5.3-11.8-11.8-11.8s-11.8,5.3-11.8,11.8
	c0,3.5,1.5,6.7,4.1,8.9c-5.7,2.1-10.2,6.3-12.6,11.9c-0.2,0.5,0,1.1,0.5,1.3c0.5,0.2,1.1,0,1.3-0.5c2.5-5.6,7.3-9.8,13.3-11.4
	c0.4-0.1,0.7-0.4,0.7-0.8c0.1-0.4-0.1-0.8-0.5-1c-3-1.8-4.8-4.9-4.8-8.4c0-5.4,4.4-9.8,9.8-9.8s9.8,4.4,9.8,9.8
	c0,3.5-1.8,6.6-4.8,8.4c-0.3,0.2-0.5,0.6-0.5,1c0.1,0.4,0.3,0.7,0.7,0.8c6,1.6,11,5.9,13.4,11.6c0.2,0.4,0.7,0.7,1.1,0.6
	c0.5-0.1,0.8-0.5,0.8-1l0,0c2.5-5.5,7.3-9.6,13.2-11.2c0.4-0.1,0.7-0.4,0.7-0.8c0.1-0.4-0.1-0.8-0.5-1c-3-1.8-4.8-4.9-4.8-8.4
	c0-5.4,4.4-9.8,9.8-9.8s9.8,4.4,9.8,9.8c0,3.5-1.8,6.6-4.8,8.4c-0.3,0.2-0.5,0.6-0.5,1c0.1,0.4,0.3,0.7,0.7,0.8
	c6,1.6,11,5.9,13.4,11.6c0.2,0.4,0.5,0.6,0.9,0.6c0.1,0,0.3,0,0.4-0.1c0.5-0.2,0.7-0.8,0.5-1.3C87.5,83.5,82.9,79.1,77.2,77z"></path>
<path d="M28.9,25.9h42.2c0.6,0,1-0.4,1-1s-0.4-1-1-1H28.9c-0.6,0-1,0.4-1,1S28.3,25.9,28.9,25.9z"></path>
<path d="M28.9,37h42.2c0.6,0,1-0.4,1-1s-0.4-1-1-1H28.9c-0.6,0-1,0.4-1,1S28.3,37,28.9,37z"></path>
</svg>